<svg width="13" height="11" viewBox="0 0 13 11" fill="none" xmlns="http://www.w3.org/2000/svg">
<path d="M1.10077 0.0126495C1.10575 0.0202392 1.13318 0.0543928 1.15936 0.0872815C1.35009 0.317502 1.49345 0.691927 1.57074 1.16375C1.62185 1.47367 1.62435 1.57107 1.62435 2.75253V3.85304H1.10326C0.62705 3.85304 0.572199 3.85051 0.478702 3.83153C0.331601 3.79991 0.179513 3.71516 0.0772904 3.60637C-0.00373986 3.51909 -0.00124662 3.51403 0.00373986 3.7784C0.00997296 3.99724 0.0124662 4.02127 0.0436317 4.14018C0.0934965 4.32866 0.162061 4.46907 0.26553 4.5943C0.406398 4.76633 0.54976 4.86247 0.754205 4.92698C0.797837 4.93963 0.890087 4.94469 1.2167 4.94722L1.62435 4.95354V5.50127V6.05025L1.04965 6.04646L0.472469 6.04266L0.372739 6.00218C0.254311 5.95412 0.200706 5.9187 0.0847702 5.81371L0 5.73655L0.00498648 5.97815C0.0112196 6.20205 0.0124662 6.22735 0.0436317 6.34119C0.152088 6.74345 0.413878 7.03059 0.759192 7.1242C0.845208 7.14823 0.878867 7.14949 1.23914 7.15455L1.62435 7.15961V8.29301C1.62435 8.97735 1.62061 9.48206 1.61437 9.56808C1.60814 9.6465 1.58819 9.79324 1.57074 9.8957C1.48971 10.3675 1.34386 10.723 1.13442 10.9532L1.09204 11H3.20007C4.46041 11 5.40285 10.9949 5.54123 10.9886C5.78432 10.976 6.3266 10.9216 6.44877 10.895C6.48741 10.8874 6.55972 10.876 6.60709 10.8684C6.70806 10.8533 6.87511 10.8178 7.11571 10.7559C7.45479 10.6698 7.76395 10.5623 8.06688 10.4257C8.16162 10.3827 8.43338 10.2423 8.50569 10.198C8.54433 10.1753 8.59046 10.1474 8.60791 10.1386C8.65653 10.112 8.73756 10.0589 8.85599 9.97286C8.91458 9.92985 8.97317 9.88811 8.98564 9.87926C9.038 9.84384 9.21876 9.69078 9.30103 9.61362C9.61393 9.32141 9.87572 8.99632 10.0789 8.64846C10.1076 8.59786 10.145 8.53461 10.1612 8.50805C10.2023 8.43721 10.3719 8.08303 10.3881 8.0299C10.3956 8.00587 10.4055 7.98057 10.4105 7.97551C10.4429 7.9325 10.6299 7.33544 10.6524 7.20515C10.6598 7.16341 10.6636 7.15708 10.6948 7.15076C10.7147 7.14696 11.0052 7.14696 11.3405 7.14949C12.0112 7.15455 12.0112 7.15455 12.1595 7.22413C12.2431 7.26334 12.268 7.28105 12.3602 7.3658C12.4812 7.47585 12.4699 7.49356 12.4625 7.2178C12.4575 7.05589 12.4512 6.95596 12.44 6.91548C12.3976 6.75989 12.3877 6.727 12.3503 6.64857C12.2281 6.37787 12.0237 6.18434 11.7619 6.092L11.6596 6.05405L11.2433 6.04899L10.8281 6.04266L10.8331 5.89466C10.8381 5.69986 10.8381 5.31405 10.8319 5.11546L10.8269 4.95607L11.3829 4.95354C11.8591 4.95101 11.9476 4.95354 12 4.96746C12.157 5.01173 12.263 5.07245 12.3927 5.19262L12.465 5.26092V5.07371C12.465 4.85108 12.4537 4.75242 12.4089 4.60568C12.3203 4.30842 12.1458 4.08705 11.8965 3.95044C11.7344 3.86189 11.7245 3.85936 11.1672 3.85557C10.8406 3.85304 10.6698 3.84798 10.6611 3.84039C10.6536 3.8328 10.6474 3.82015 10.6474 3.81003C10.6474 3.79991 10.6287 3.72022 10.6038 3.6342C10.312 2.58809 9.76727 1.75701 8.97068 1.14098C8.86222 1.05623 8.59669 0.877875 8.48948 0.817157C8.44835 0.793123 8.40347 0.767824 8.39225 0.760235C8.33989 0.731141 8.03945 0.581877 7.96466 0.550253C7.91978 0.530014 7.86119 0.504715 7.83501 0.494595C7.39495 0.301058 6.65695 0.11764 6.09348 0.0607176C6.00123 0.0518629 5.87906 0.0379485 5.82296 0.0328887C5.56865 0.00379485 5.21586 0 3.21254 0C1.51963 0 1.09453 0.00379485 1.10077 0.0126495ZM5.22334 0.560373C5.6447 0.585672 5.90399 0.61856 6.20692 0.693192C7.13191 0.915823 7.78265 1.38638 8.25512 2.17318C8.29875 2.24655 8.48325 2.62856 8.51068 2.70573C8.64157 3.06371 8.70515 3.27622 8.76125 3.55704C8.77496 3.62535 8.79366 3.71642 8.80238 3.75943C8.81111 3.80117 8.81485 3.84039 8.81111 3.84418C8.80488 3.84924 7.55327 3.85177 6.02741 3.85051L3.25368 3.84798L3.24994 2.22252C3.24869 1.32946 3.24994 0.586937 3.25368 0.573022L3.25867 0.548988H4.14501C4.63119 0.548988 5.11738 0.554048 5.22334 0.560373ZM8.93203 4.99149C8.94076 5.04588 8.94076 5.9693 8.93203 6.01483L8.92455 6.04899L6.08849 6.04646L3.25368 6.04266L3.25119 5.50632C3.24869 5.21159 3.25119 4.96619 3.25368 4.96113C3.25742 4.95481 4.46539 4.95101 6.09223 4.95101H8.92455L8.93203 4.99149ZM8.80488 7.16341C8.81111 7.18238 8.78119 7.33797 8.72011 7.59096C8.6503 7.87557 8.55555 8.16272 8.45956 8.37523C8.41219 8.48402 8.29376 8.7193 8.26509 8.76357C8.25138 8.78381 8.21149 8.84832 8.17658 8.90524C7.95219 9.26196 7.63181 9.58705 7.26655 9.82739C7.13316 9.91341 6.8589 10.0601 6.78535 10.0829C6.77039 10.0867 6.75419 10.0943 6.74795 10.0994C6.73923 10.1069 6.62579 10.15 6.49364 10.198C6.25055 10.2853 5.78806 10.3802 5.41656 10.4194C5.17597 10.4434 5.13732 10.4447 4.21108 10.4447H3.25243V8.80405V7.16214L6.00622 7.15708C7.52086 7.15455 8.76873 7.15076 8.7787 7.14823C8.78992 7.14696 8.80114 7.15455 8.80488 7.16341Z" fill="white"/>
</svg>
