<svg width="12" height="11" viewBox="0 0 12 11" fill="none" xmlns="http://www.w3.org/2000/svg">
<path d="M6 11C4.46458 11 3.16406 10.4672 2.09844 9.40156C1.03281 8.33594 0.5 7.03542 0.5 5.5C0.5 3.96458 1.03281 2.66406 2.09844 1.59844C3.16406 0.532815 4.46458 2.37069e-06 6 2.37069e-06C6.79062 2.37069e-06 7.54687 0.163169 8.26874 0.489502C8.99062 0.815835 9.60937 1.28288 10.125 1.89063V0.687502C10.125 0.492711 10.191 0.329544 10.323 0.198002C10.455 0.0664608 10.6182 0.000460704 10.8125 2.37069e-06C11.0068 -0.000455963 11.1702 0.0655441 11.3027 0.198002C11.4351 0.330461 11.5009 0.493627 11.5 0.687502V4.125C11.5 4.31979 11.434 4.48319 11.302 4.61519C11.17 4.74719 11.0068 4.81296 10.8125 4.8125H7.37499C7.1802 4.8125 7.01704 4.7465 6.88549 4.6145C6.75395 4.4825 6.68795 4.31933 6.68749 4.125C6.68704 3.93067 6.75304 3.7675 6.88549 3.6355C7.01795 3.5035 7.18112 3.4375 7.37499 3.4375H9.57499C9.20833 2.79584 8.70714 2.29167 8.07143 1.925C7.43572 1.55834 6.74524 1.375 6 1.375C4.85416 1.375 3.88021 1.77604 3.07812 2.57813C2.27604 3.38021 1.875 4.35417 1.875 5.5C1.875 6.64583 2.27604 7.61979 3.07812 8.42188C3.88021 9.22396 4.85416 9.625 6 9.625C6.77916 9.625 7.49256 9.42746 8.14018 9.03238C8.7878 8.63729 9.28899 8.10723 9.64374 7.44219C9.73541 7.28177 9.86443 7.17017 10.0308 7.10738C10.1972 7.04458 10.3661 7.0416 10.5375 7.09844C10.7208 7.15573 10.8526 7.27604 10.9328 7.45938C11.013 7.64271 11.0073 7.81458 10.9156 7.975C10.4458 8.89167 9.77551 9.625 8.90468 10.175C8.03385 10.725 7.06562 11 6 11Z" fill="#854C07"/>
</svg>
