<svg width="16" height="16" viewBox="0 0 16 16" fill="none" xmlns="http://www.w3.org/2000/svg">
<path d="M16 8C16 12.4183 12.4183 16 8 16C3.58172 16 9.96839e-10 12.4183 9.96839e-10 8C9.96839e-10 3.58172 3.58172 0 8 0C12.4183 0 16 3.58172 16 8Z" fill="#E30000"/>
<path d="M8 0C6.41775 0 4.87103 0.469192 3.55544 1.34824C2.23985 2.22729 1.21447 3.47672 0.608967 4.93853C0.00346627 6.40034 -0.15496 8.00887 0.153721 9.56072C0.462403 11.1126 1.22433 12.538 2.34315 13.6568C3.46197 14.7757 4.88743 15.5376 6.43928 15.8463C7.99113 16.155 9.59966 15.9965 11.0615 15.391C12.5233 14.7855 13.7727 13.7601 14.6518 12.4446C15.5308 11.129 16 9.58225 16 8C15.9959 5.87952 15.1518 3.84705 13.6524 2.34764C12.153 0.848226 10.1205 0.00406613 8 0Z" fill="white"/>
<path d="M4.66016 8.30999L6.6792 10.3295L11.339 5.66992" stroke="#378241"/>
</svg>
